<?xml version="1.0" standalone="no"?>
<!DOCTYPE svg PUBLIC "-//W3C//DTD SVG 20010904//EN"
 "http://www.w3.org/TR/2001/REC-SVG-20010904/DTD/svg10.dtd">
<svg version="1.0" xmlns="http://www.w3.org/2000/svg"
 width="1024.000000pt" height="1024.000000pt" viewBox="0 0 1024.000000 1024.000000"
 preserveAspectRatio="xMidYMid meet">
<metadata>
Created by potrace 1.14, written by Peter Selinger 2001-2017
</metadata>
<g transform="translate(0.000000,1024.000000) scale(0.100000,-0.100000)"
fill="#000000" stroke="none">
<path d="M4780 8844 c-594 -34 -1197 -129 -1421 -224 -187 -79 -312 -215 -380
-410 -20 -58 -23 -92 -28 -320 l-6 -255 -60 -54 c-649 -587 -1025 -1358 -1080
-2213 l-7 -108 -42 0 c-56 0 -106 -29 -133 -76 -29 -50 -29 -80 0 -134 27 -51
75 -80 133 -80 l41 0 7 -102 c15 -240 54 -469 121 -723 57 -220 125 -391 245
-623 157 -302 324 -526 588 -790 l183 -182 19 -78 c37 -147 124 -289 229 -376
151 -126 300 -172 786 -246 449 -67 674 -84 1130 -85 460 0 679 16 1160 86
415 60 603 111 727 195 163 111 250 250 302 485 4 16 46 62 117 125 608 540
972 1321 1035 2220 l6 92 48 4 c190 19 177 288 -14 288 -33 0 -36 3 -36 28 0
15 -5 81 -10 147 -49 582 -251 1132 -592 1607 -125 175 -207 269 -389 448
l-167 165 -4 250 c-4 239 -5 253 -30 325 -40 113 -74 167 -157 250 -130 129
-270 185 -626 250 -230 42 -434 68 -785 101 -114 10 -785 20 -910 13z m850
-265 c306 -20 617 -62 893 -120 223 -47 294 -69 365 -109 69 -40 67 -55 -5
-24 -77 34 -267 79 -508 119 -273 46 -624 79 -642 62 -3 -4 6 -7 20 -7 28 0
36 -14 15 -24 -7 -3 -4 -5 7 -5 11 1 31 0 45 -1 24 -2 23 -3 -5 -9 -29 -7 -29
-7 13 -14 26 -5 42 -13 42 -21 0 -8 12 -17 28 -20 15 -2 -4 -3 -43 -1 -929 50
-1600 12 -2220 -125 -263 -59 -366 -100 -402 -160 -9 -17 -20 -30 -23 -30 -14
0 11 134 30 165 24 39 78 88 120 110 130 67 593 155 1055 200 338 34 832 39
1215 14z m363 -186 c-7 -2 -21 -2 -30 0 -10 3 -4 5 12 5 17 0 24 -2 18 -5z
m-593 -163 c327 -13 540 -32 818 -75 407 -63 665 -136 727 -205 l20 -23 -42
22 c-138 70 -673 170 -1063 200 -164 12 -356 21 -317 14 16 -2 26 -10 24 -16
-3 -7 -10 -11 -16 -9 -6 1 -10 -3 -8 -10 1 -7 -13 -17 -32 -23 l-34 -12 62
-12 c33 -7 61 -13 61 -15 0 -2 -129 -1 -287 2 -683 11 -1382 -61 -1831 -190
-135 -38 -190 -66 -236 -119 l-36 -43 0 69 c0 54 5 77 25 110 46 79 109 113
312 169 318 87 785 149 1258 165 315 11 321 11 595 1z m-266 -358 c3 -5 83
-10 178 -12 221 -4 239 -5 264 -13 11 -4 69 -14 130 -22 60 -8 161 -23 224
-35 63 -11 128 -18 144 -15 l29 5 -27 -21 c-26 -20 -34 -21 -184 -15 -148 6
-264 7 -377 5 -27 -1 -63 2 -80 6 l-30 8 22 -22 c12 -11 26 -21 31 -21 5 0 15
-7 22 -15 11 -13 8 -15 -16 -17 -20 -1 -14 -3 16 -7 35 -5 45 -10 47 -26 1
-16 1 -16 -3 -2 -3 9 -15 17 -27 17 -16 0 -18 -3 -8 -9 7 -5 9 -11 4 -14 -4
-3 -97 -7 -206 -9 -188 -3 -222 -7 -222 -25 0 -4 -6 -22 -13 -40 l-14 -31
-133 -1 -133 -2 13 38 c13 37 10 63 -5 46 -4 -4 -13 -24 -19 -45 l-12 -36
-112 -7 c-62 -4 -142 -5 -180 -4 -37 2 -67 1 -67 -2 0 -3 -62 -11 -137 -18
-180 -17 -521 -58 -532 -65 -12 -8 -21 71 -21 190 0 117 -9 107 110 124 41 6
100 15 130 20 141 24 283 41 297 36 8 -4 22 -1 29 5 7 6 48 13 91 15 43 2 159
10 258 18 99 7 247 14 330 15 82 2 152 4 154 7 7 7 30 4 35 -4z m409 -149 c-7
-3 -9 -11 -6 -19 3 -8 0 -14 -6 -14 -6 0 -11 11 -11 25 0 19 4 23 17 18 10 -4
12 -8 6 -10z m-2030 -205 c2 -95 12 -213 21 -262 47 -252 185 -553 365 -794
79 -104 262 -295 386 -402 110 -94 271 -213 470 -348 219 -148 290 -224 339
-366 l23 -66 27 74 c55 150 107 204 356 372 494 332 781 609 981 946 169 286
248 571 249 897 l0 123 27 -7 c15 -3 31 -12 35 -18 11 -18 9 -265 -3 -397 -32
-353 -128 -651 -283 -883 -81 -122 -248 -318 -377 -442 -149 -144 -299 -266
-527 -428 -101 -72 -204 -149 -228 -170 -91 -80 -123 -211 -75 -310 33 -68
108 -131 398 -335 309 -218 398 -287 519 -407 283 -280 479 -694 549 -1160 22
-145 20 -181 -7 -189 -59 -15 -65 -10 -78 62 -30 177 -159 473 -299 685 -212
322 -461 555 -923 866 -222 149 -272 206 -323 360 l-18 54 -22 -71 c-46 -146
-91 -193 -358 -371 -303 -204 -502 -368 -665 -551 -247 -277 -450 -660 -509
-957 -17 -89 -21 -93 -82 -76 -23 6 -24 7 -17 96 8 124 57 358 105 506 75 229
227 505 359 653 141 157 263 254 787 625 114 81 197 164 225 225 54 119 -4
250 -160 363 -483 348 -535 390 -735 596 -269 277 -403 478 -485 730 -82 250
-110 421 -117 708 -6 239 -6 240 43 241 21 0 22 -5 27 -172z m2872 112 c-3 -5
-12 -10 -19 -10 -8 0 -45 -36 -82 -80 -142 -165 -289 -239 -479 -240 -27 0
-92 -9 -144 -20 -76 -16 -139 -20 -330 -22 -130 -1 -196 -4 -148 -5 53 -2 85
-8 82 -13 -4 -6 10 -10 31 -10 l37 0 -27 -25 -27 -25 40 0 c22 0 43 5 46 10 3
6 12 10 18 9 9 0 9 -2 0 -5 -7 -3 -9 -12 -6 -21 4 -9 2 -14 -3 -10 -5 3 -34 2
-64 -3 l-55 -8 60 -1 c61 -1 112 19 100 40 -3 5 1 6 9 3 12 -5 11 -10 -7 -28
-23 -22 -30 -23 -313 -30 -159 -3 -327 -8 -374 -11 -47 -3 -139 -7 -205 -9
-67 -3 -132 -9 -145 -15 -19 -7 -20 -10 -7 -10 16 -1 66 -47 67 -62 0 -9 -40
-19 -55 -13 -7 3 -20 23 -30 44 -10 21 -23 41 -30 44 -7 2 -47 0 -89 -5 -43
-5 -92 -9 -109 -8 -18 2 -45 1 -62 0 -30 -3 -30 -3 -5 -11 19 -6 9 -8 -38 -9
-43 -1 -61 -5 -56 -12 3 -6 15 -9 25 -6 11 3 16 1 13 -4 -3 -5 -24 -7 -47 -4
-33 4 -37 3 -20 -4 13 -6 46 -14 75 -18 l53 -7 -40 -7 c-22 -4 -69 -8 -104 -8
l-64 -1 6 -37 c6 -33 5 -35 -7 -17 -33 47 -120 290 -107 298 12 8 346 46 546
63 160 13 340 16 895 17 l695 1 67 27 c97 39 172 90 268 183 47 45 94 87 105
93 25 14 68 15 60 2z m-3271 -241 c-22 -18 -65 -59 -97 -91 -46 -46 -56 -61
-48 -75 5 -10 9 -34 9 -54 0 -30 -11 -48 -70 -115 -365 -412 -589 -876 -687
-1421 -11 -62 -23 -152 -27 -201 l-7 -89 -43 -27 c-24 -15 -53 -39 -64 -53
l-20 -26 0 59 c0 345 117 814 290 1169 125 256 249 441 444 662 98 111 151
158 301 266 61 43 72 41 19 -4z m4369 -304 l52 -60 -44 39 c-24 21 -78 74
-120 117 -41 44 -78 79 -82 79 -11 0 -8 -69 3 -76 7 -4 7 -9 0 -13 -6 -4 7
-26 31 -53 23 -26 62 -74 87 -107 25 -33 50 -58 57 -56 7 2 10 -2 7 -8 -2 -7
16 -35 40 -62 57 -63 60 -68 64 -85 2 -8 12 -24 23 -36 20 -22 24 -34 10 -34
-4 0 -30 33 -56 73 -56 83 -219 281 -268 324 -32 28 -34 33 -40 118 l-6 89 95
-95 c53 -51 119 -121 147 -154z m-2170 158 c-7 -2 -19 -2 -25 0 -7 3 -2 5 12
5 14 0 19 -2 13 -5z m-1066 -159 c-3 -3 -12 -4 -19 -1 -8 3 -5 6 6 6 11 1 17
-2 13 -5z m-42 -13 c-6 -5 -19 -12 -30 -15 -11 -3 -1 -3 22 -1 27 3 43 1 46
-8 3 -7 6 -4 6 6 1 11 7 17 14 14 6 -2 11 -10 10 -16 -4 -15 14 -14 20 2 4 9
8 9 15 -1 5 -8 13 -13 18 -12 5 1 10 -3 12 -9 2 -7 -15 -11 -45 -12 -26 0 -57
-2 -68 -5 -37 -7 -63 5 -73 36 -11 30 -11 30 26 30 22 0 32 -4 27 -9z m-117
-36 c0 -14 -4 -25 -8 -25 -5 0 -7 8 -5 18 2 9 4 20 4 25 2 18 9 4 9 -18z
m1954 5 c49 -5 94 -12 100 -17 7 -4 -88 -10 -212 -13 -294 -7 -303 -11 -391
-164 -50 -89 -110 -143 -182 -167 -46 -15 -417 -21 -417 -7 0 4 46 8 103 8
133 0 218 14 292 49 84 39 124 77 170 162 43 77 91 125 146 145 41 15 268 17
391 4z m1509 -37 c13 -16 12 -17 -3 -4 -10 7 -18 15 -18 17 0 8 8 3 21 -13z
m-1896 -43 c3 -5 1 -10 -4 -10 -6 0 -11 5 -11 10 0 6 2 10 4 10 3 0 8 -4 11
-10z m-10 -29 c-3 -5 3 -12 12 -14 10 -3 -2 -5 -27 -4 -25 0 -35 2 -22 4 12 2
22 9 22 14 0 5 5 9 11 9 5 0 8 -4 4 -9z m-2700 -1198 l-7 -473 -256 0 -255 0
6 103 c13 204 72 474 152 693 54 148 187 409 279 547 l81 122 3 -260 c2 -143
0 -473 -3 -732z m4464 825 c127 -202 211 -378 280 -587 69 -207 121 -482 121
-635 l0 -76 -260 0 -260 0 0 733 1 732 27 -32 c15 -17 56 -78 91 -135z m238
132 c9 -16 21 -30 25 -30 4 0 7 -3 6 -8 -3 -6 88 -160 101 -172 16 -14 112
-232 146 -330 8 -25 19 -54 24 -65 11 -24 55 -177 75 -260 40 -166 78 -502 62
-553 -16 -49 -26 -16 -26 81 0 185 -57 481 -140 727 -42 122 -130 333 -167
400 -11 19 -35 62 -53 95 -18 33 -45 79 -61 103 -16 23 -24 42 -19 42 5 0 17
-13 27 -30z m-3014 -8 l88 -7 57 -59 c76 -79 146 -130 207 -151 43 -15 105
-19 445 -24 450 -6 440 -17 -25 -27 -341 -8 -405 -1 -499 49 -32 17 -84 58
-115 90 -64 67 -90 81 -123 66 -22 -9 -22 -9 -2 -6 25 5 58 -28 47 -46 -5 -9
-3 -9 8 0 13 11 15 8 11 -17 -4 -29 -7 -30 -52 -30 -27 0 -55 -3 -63 -6 -15
-5 -31 8 -95 79 -27 31 -39 37 -70 35 -34 -1 -34 -2 -7 -5 31 -5 67 -41 79
-80 l7 -23 -133 -1 c-73 -1 -166 -3 -206 -5 -68 -2 -74 -1 -101 26 -49 50
-111 122 -111 131 0 5 96 10 213 12 116 1 244 3 282 4 39 1 110 -2 158 -5z
m577 -461 l115 -6 -85 -8 c-140 -13 -783 -4 -788 11 -3 9 65 12 320 11 178 -1
375 -5 438 -8z m-1665 -367 c204 -205 417 -378 775 -632 80 -57 145 -107 145
-111 0 -5 -45 -42 -100 -82 -171 -124 -206 -150 -360 -273 -308 -245 -473
-405 -628 -608 -45 -59 -81 -106 -82 -105 0 1 1 210 3 464 l3 462 232 3 c211
3 235 5 265 23 96 58 93 187 -6 243 -38 21 -50 22 -266 22 l-226 0 0 414 c0
228 -3 423 -6 433 -3 10 14 -4 37 -32 24 -27 120 -127 214 -221z m3395 -174
l0 -420 -222 0 c-203 0 -225 -2 -264 -21 -103 -49 -108 -193 -10 -247 26 -14
68 -17 264 -20 l232 -3 0 -461 0 -461 -59 79 c-183 244 -454 492 -930 848
-100 76 -179 141 -175 146 5 4 41 29 79 55 409 281 669 495 930 768 83 86 151
157 153 157 1 0 2 -189 2 -420z m-1820 160 c-36 -12 -130 -12 -130 0 0 6 32
10 78 9 54 -1 69 -3 52 -9z m-2942 -902 c1 -101 31 -330 59 -450 8 -38 12 -75
9 -84 -3 -8 -2 -13 3 -10 9 6 25 -54 16 -62 -3 -3 -5 2 -5 12 0 9 -4 14 -10
11 -5 -3 -10 -1 -10 4 0 6 -5 11 -10 11 -6 0 -4 -12 4 -29 14 -26 14 -29 -2
-27 -28 2 -27 -67 3 -164 15 -47 36 -114 47 -150 11 -36 24 -69 28 -75 4 -5
10 -21 13 -35 9 -38 43 -130 48 -127 2 1 3 0 2 -2 -1 -2 4 -19 13 -39 8 -19
12 -37 10 -39 -2 -3 -25 39 -51 93 -135 284 -226 597 -270 928 -22 174 -21
207 13 238 31 28 73 58 83 58 4 0 7 -28 7 -62z m6008 25 c-8 -16 -35 -47 -60
-70 -43 -40 -46 -46 -46 -92 0 -219 -116 -664 -252 -967 -119 -265 -337 -583
-527 -769 -44 -43 -51 -46 -51 -27 0 13 26 50 68 94 419 444 670 1017 738
1683 7 70 7 70 65 123 66 58 87 66 65 25z m-5241 -65 c3 -40 5 -374 3 -742
l-3 -669 -72 109 c-213 326 -343 652 -412 1034 -11 63 -23 149 -26 190 -3 41
-8 92 -11 113 l-4 37 259 0 259 0 7 -72z m4871 -10 c-41 -490 -196 -930 -471
-1341 l-55 -82 0 753 0 752 266 0 267 0 -7 -82z m-2614 -412 c23 -13 44 -28
45 -33 2 -5 -22 -17 -54 -26 -42 -12 -72 -30 -108 -64 -38 -35 -43 -42 -21
-31 22 12 37 13 58 6 40 -14 35 -32 -7 -27 -3 0 -28 -16 -55 -35 -28 -20 -50
-31 -50 -26 0 16 -22 12 -35 -7 -10 -13 -13 -14 -20 -2 -5 8 -5 11 -1 8 7 -6
78 53 71 59 -9 9 -83 -61 -78 -74 4 -10 0 -12 -13 -7 -16 6 -17 5 -4 -9 8 -9
19 -15 24 -15 12 3 15 -43 3 -50 -6 -4 -7 -1 -2 7 5 8 3 11 -6 8 -8 -3 -13
-11 -11 -18 2 -7 -3 -10 -12 -7 -15 6 -30 -8 -31 -28 0 -5 -11 -9 -23 -8 -12
2 -22 -1 -22 -6 0 -5 -9 -7 -20 -4 -11 3 -20 0 -20 -6 0 -6 5 -11 10 -11 6 0
-3 -13 -18 -30 -16 -16 -34 -30 -40 -30 -6 0 -20 -9 -30 -20 -21 -23 -122 -60
-164 -60 -15 0 -28 -3 -28 -8 0 -4 -35 -7 -77 -6 l-78 2 60 -7 c52 -7 44 -8
-59 -9 l-119 -2 19 21 c30 34 198 167 339 269 72 51 189 138 262 192 72 54
147 105 165 113 42 19 95 12 150 -19z m-2923 -163 c0 -5 -4 -17 -9 -28 -8 -18
-9 -17 -9 8 -1 15 4 27 9 27 6 0 10 -3 9 -7z m-46 -38 c-7 -21 -13 -19 -13 6
0 11 4 18 10 14 5 -3 7 -12 3 -20z m48 -22 c-12 -20 -14 -14 -5 12 4 9 9 14
11 11 3 -2 0 -13 -6 -23z m34 -78 c6 -15 5 -17 -4 -9 -6 6 -14 28 -16 50 -4
35 -4 36 4 9 5 -16 12 -39 16 -50z m3258 43 l22 -12 -25 -7 c-14 -4 -48 -7
-76 -8 -28 -1 -72 -4 -97 -7 l-45 -6 24 -22 c18 -15 25 -33 27 -65 l2 -45 -60
-34 c-33 -18 -61 -38 -63 -43 -2 -5 -14 -9 -27 -9 -12 0 -50 -20 -82 -44 -33
-24 -82 -56 -109 -70 -27 -15 -57 -37 -67 -49 -16 -18 -21 -19 -39 -8 -17 11
-23 10 -42 -8 -29 -27 -157 -101 -176 -101 -9 0 -21 -18 -30 -46 -14 -43 -19
-47 -93 -80 -42 -20 -94 -38 -114 -41 -33 -6 -36 -4 -29 13 4 10 10 33 12 49
4 24 0 20 -22 -22 -31 -60 -50 -70 -148 -77 -39 -2 -72 -9 -76 -16 -8 -13 -91
-10 -209 7 -39 5 -43 4 -38 -11 4 -9 3 -15 -2 -11 -12 7 -49 -46 -44 -63 3 -7
-1 -11 -9 -10 -7 2 -12 -5 -11 -15 0 -10 -1 -16 -4 -14 -2 3 -13 -3 -24 -14
-10 -10 -24 -19 -29 -19 -29 0 206 381 265 430 14 12 51 15 179 15 177 1 230
10 360 68 111 49 224 119 378 234 168 125 196 143 257 159 60 16 236 18 264 2z
m-3316 -45 c-3 -10 -5 -4 -5 12 0 17 2 24 5 18 2 -7 2 -21 0 -30z m2663 -53
c0 -5 -5 -10 -11 -10 -5 0 -7 5 -4 10 3 6 8 10 11 10 2 0 4 -4 4 -10z m-2543
-142 c-3 -7 -5 -2 -5 12 0 14 2 19 5 13 2 -7 2 -19 0 -25z m3663 -199 c9 -5
-26 -9 -95 -9 -175 -2 -192 -7 -282 -83 -93 -80 -197 -136 -313 -170 -105 -31
-143 -41 -152 -39 -8 2 -74 -21 -121 -41 -17 -8 -57 -25 -87 -37 -30 -12 -76
-38 -102 -57 -42 -30 -46 -37 -37 -55 8 -16 7 -23 -8 -34 -17 -14 -17 -15 1
-29 26 -20 12 -32 -18 -15 -14 7 -34 10 -46 7 -17 -4 -19 -3 -9 9 6 7 16 11
23 7 7 -3 6 -1 -1 7 -7 8 -14 12 -16 9 -133 -173 -222 -247 -301 -250 -19 0
-19 -1 -3 -8 31 -12 -236 0 -438 19 -121 11 -194 14 -200 8 -6 -6 -3 -7 10 -3
16 5 17 5 5 -4 -18 -13 -14 -16 35 -29 32 -8 35 -10 15 -12 l-25 -2 25 -8 c17
-5 8 -7 -28 -5 -30 2 -60 9 -68 16 -11 9 -14 9 -14 -1 0 -6 -9 -23 -20 -37
-11 -14 -20 -20 -20 -12 0 10 31 134 45 175 2 8 34 6 107 -7 148 -26 363 -42
476 -37 162 8 236 53 339 204 90 132 213 204 463 273 288 78 333 98 433 190
89 82 93 83 262 76 82 -4 157 -11 165 -16z m-1063 -405 c-3 -3 -12 -4 -19 -1
-8 3 -5 6 6 6 11 1 17 -2 13 -5z m-47 -39 c0 -8 -7 -15 -16 -15 -14 0 -14 3
-4 15 7 8 14 15 16 15 2 0 4 -7 4 -15z m-983 -11 c-3 -3 -12 -4 -19 -1 -8 3
-5 6 6 6 11 1 17 -2 13 -5z m1958 -23 c39 -6 135 -11 215 -11 97 0 140 -3 130
-10 -20 -13 -251 -13 -385 1 -94 9 -116 9 -169 -6 -78 -22 -108 -38 -157 -82
-71 -64 -90 -110 -100 -231 -4 -59 -8 -119 -8 -134 -1 -18 -6 -28 -16 -28 -12
0 -15 19 -15 109 0 201 29 275 138 348 35 24 78 47 95 53 35 10 164 6 272 -9z
m-992 -8 c-7 -2 -21 -2 -30 0 -10 3 -4 5 12 5 17 0 24 -2 18 -5z m-985 -290
c-10 -2 -26 -2 -35 0 -10 3 -2 5 17 5 19 0 27 -2 18 -5z m155 -30 c-7 -2 -19
-2 -25 0 -7 3 -2 5 12 5 14 0 19 -2 13 -5z m345 0 c-10 -2 -26 -2 -35 0 -10 3
-2 5 17 5 19 0 27 -2 18 -5z m-411 -9 c-3 -3 -12 -4 -19 -1 -8 3 -5 6 6 6 11
1 17 -2 13 -5z m-24 -21 c-7 -2 -19 -2 -25 0 -7 3 -2 5 12 5 14 0 19 -2 13 -5z
m80 -10 c-7 -2 -19 -2 -25 0 -7 3 -2 5 12 5 14 0 19 -2 13 -5z m-714 -114
c191 -72 645 -159 1001 -193 419 -40 1102 -45 1455 -11 442 43 963 143 1099
212 15 8 48 33 72 55 31 28 44 36 44 24 0 -30 -73 -99 -138 -128 -131 -60
-502 -137 -907 -188 -302 -38 -432 -44 -880 -44 -446 0 -716 14 -956 49 -167
25 -189 26 -227 13 -57 -19 -63 -31 -12 -25 25 3 36 3 25 0 -17 -5 -16 -7 10
-19 30 -14 6 -13 -27 1 -10 4 -18 3 -18 -3 0 -12 55 -23 88 -17 15 3 7 -2 -18
-10 -35 -12 -56 -13 -95 -5 -27 5 -99 19 -158 30 -158 30 -319 76 -387 110
-82 41 -111 86 -118 182 l-5 72 48 -41 c26 -24 72 -52 104 -64z m2491 37 c0
-2 -12 -11 -27 -20 l-28 -17 24 20 c23 21 31 25 31 17z m-2493 -406 c102 -38
293 -87 468 -118 843 -153 1902 -148 2685 13 228 47 330 78 433 129 48 24 87
40 87 36 0 -15 -73 -69 -126 -94 -115 -54 -445 -128 -789 -176 -540 -75 -1387
-80 -1950 -10 -292 36 -663 111 -769 155 -21 9 -41 14 -44 11 -3 -3 -1 -6 4
-6 6 0 19 -7 30 -16 18 -14 18 -15 -6 -9 -14 4 -37 15 -51 25 -20 14 -26 15
-26 4 0 -8 6 -14 14 -14 7 0 13 -4 13 -10 0 -5 -7 -10 -15 -10 -13 0 -14 -2
-3 -14 7 -8 18 -13 23 -13 6 1 9 -3 8 -9 -1 -7 13 -15 32 -18 19 -4 35 -12 35
-18 0 -5 7 -7 16 -4 9 4 22 2 28 -3 6 -5 35 -17 64 -26 68 -23 62 -29 -9 -10
-30 9 -64 18 -77 20 -28 7 -98 42 -135 69 -37 27 -64 71 -76 127 -6 25 -13 53
-17 62 -4 12 10 6 45 -17 28 -19 77 -44 108 -56z m643 70 c0 -5 -10 -10 -22
-10 -19 0 -20 2 -8 10 19 13 30 13 30 0z m80 -12 c0 -11 -42 -10 -60 2 -10 6
-3 8 23 7 20 -1 37 -5 37 -9z m65 -8 c18 -8 17 -9 -7 -9 -15 -1 -30 4 -33 9
-7 12 12 12 40 0z m-775 -160 c0 -5 -2 -10 -4 -10 -3 0 -8 5 -11 10 -3 6 -1
10 4 10 6 0 11 -4 11 -10z m77 -6 c-3 -3 -12 -4 -19 -1 -8 3 -5 6 6 6 11 1 17
-2 13 -5z"/>
<path d="M5688 8513 c6 -2 18 -2 25 0 6 3 1 5 -13 5 -14 0 -19 -2 -12 -5z"/>
<path d="M5658 8493 c7 -3 16 -2 19 1 4 3 -2 6 -13 5 -11 0 -14 -3 -6 -6z"/>
<path d="M5800 8430 c8 -5 22 -9 30 -9 10 0 8 3 -5 9 -27 12 -43 12 -25 0z"/>
<path d="M4923 7623 c9 -2 23 -2 30 0 6 3 -1 5 -18 5 -16 0 -22 -2 -12 -5z"/>
<path d="M4978 7583 c12 -2 32 -2 45 0 12 2 2 4 -23 4 -25 0 -35 -2 -22 -4z"/>
<path d="M4928 7563 c6 -2 18 -2 25 0 6 3 1 5 -13 5 -14 0 -19 -2 -12 -5z"/>
<path d="M5258 7213 c7 -3 16 -2 19 1 4 3 -2 6 -13 5 -11 0 -14 -3 -6 -6z"/>
<path d="M3978 7083 c7 -3 16 -2 19 1 4 3 -2 6 -13 5 -11 0 -14 -3 -6 -6z"/>
<path d="M3963 7013 c9 -2 23 -2 30 0 6 3 -1 5 -18 5 -16 0 -22 -2 -12 -5z"/>
<path d="M4618 6613 c7 -3 16 -2 19 1 4 3 -2 6 -13 5 -11 0 -14 -3 -6 -6z"/>
<path d="M2141 4574 c0 -11 3 -14 6 -6 3 7 2 16 -1 19 -3 4 -6 -2 -5 -13z"/>
<path d="M2185 4371 c3 -18 5 -42 5 -53 0 -15 2 -17 14 -6 8 7 10 19 6 28 -5
8 -13 26 -19 40 -11 23 -11 23 -6 -9z"/>
<path d="M2210 4390 c0 -5 5 -10 10 -10 6 0 10 5 10 10 0 6 -4 10 -10 10 -5 0
-10 -4 -10 -10z"/>
<path d="M5025 4270 c-10 -11 -13 -20 -8 -20 13 0 38 29 31 35 -3 3 -13 -4
-23 -15z"/>
<path d="M4800 4129 c0 -5 5 -7 10 -4 6 3 10 8 10 11 0 2 -4 4 -10 4 -5 0 -10
-5 -10 -11z"/>
<path d="M4348 3913 c7 -3 16 -2 19 1 4 3 -2 6 -13 5 -11 0 -14 -3 -6 -6z"/>
<path d="M4806 3279 c-12 -11 -15 -19 -7 -19 13 0 41 24 41 34 0 11 -15 5 -34
-15z"/>
<path d="M3805 3011 c-11 -19 29 -47 55 -40 25 7 25 7 -2 8 -17 1 -28 7 -28
15 0 19 -17 30 -25 17z"/>
<path d="M3574 2688 c18 -7 24 -13 16 -18 -9 -5 -8 -9 2 -13 8 -3 14 2 15 13
1 11 -7 20 -20 24 -35 9 -44 5 -13 -6z"/>
<path d="M3628 2663 c7 -3 16 -2 19 1 4 3 -2 6 -13 5 -11 0 -14 -3 -6 -6z"/>
<path d="M3651 2655 c-26 -9 -30 -13 -17 -18 10 -4 24 -1 32 8 8 8 21 12 29 9
8 -4 15 -1 15 5 0 13 -14 12 -59 -4z"/>
<path d="M3725 2650 c4 -6 11 -8 16 -5 14 9 11 15 -7 15 -8 0 -12 -5 -9 -10z"/>
<path d="M3770 2650 c8 -5 24 -10 34 -10 26 0 18 6 -19 14 -22 5 -26 4 -15 -4z"/>
<path d="M3849 2632 c11 -8 11 -10 0 -14 -8 -3 -11 -9 -7 -13 4 -4 13 -3 21 3
7 6 22 9 34 6 11 -3 23 -2 26 3 4 6 1 10 -6 10 -7 1 -28 4 -47 8 -24 4 -31 4
-21 -3z"/>
<path d="M3598 2623 c7 -3 16 -2 19 1 4 3 -2 6 -13 5 -11 0 -14 -3 -6 -6z"/>
<path d="M3643 2613 c9 -2 23 -2 30 0 6 3 -1 5 -18 5 -16 0 -22 -2 -12 -5z"/>
<path d="M5239 1296 c-2 -2 -94 -6 -204 -10 -110 -4 -216 -8 -235 -10 -19 -1
-80 -6 -135 -10 -55 -4 -131 -11 -170 -16 -264 -33 -268 -33 -430 -78 -47 -13
-85 -52 -51 -52 8 0 16 -7 18 -16 14 -74 643 -129 1443 -125 661 3 1196 41
1438 101 46 12 63 32 52 61 -26 66 -556 132 -1150 144 -137 3 -322 7 -411 10
-88 3 -162 4 -165 1z"/>
</g>
</svg>
